 <svg version="1.0" xmlns="http://www.w3.org/2000/svg" width="700.000000pt" height="567.000000pt" viewBox="0 0 700.000000 567.000000" preserveAspectRatio="xMidYMid meet">

<g transform="translate(0.000000,567.000000) scale(0.100000,-0.100000)" fill="#000000" stroke="none">
<path d="M52 5646 c-6 -13 -20 -27 -31 -31 -21 -6 -21 -9 -21 -618 l0 -612 59
-24 c85 -34 134 -21 169 43 15 27 18 85 22 498 5 467 5 467 27 490 l23 22 457
0 458 1 51 33 c69 43 77 81 37 164 l-28 57 -606 1 -606 0 -11 -24z"
style="color:#000;fill:#f00;fill-opacity:1;"></path>
<path d="M5720 5655 c0 -8 -12 -31 -26 -52 -15 -23 -23 -45 -20 -58 3 -11 6
-29 6 -40 0 -13 18 -32 49 -54 l50 -33 463 -5 c444 -4 464 -5 483 -24 19 -19
20 -36 25 -487 4 -413 7 -471 22 -498 9 -17 24 -36 32 -43 22 -18 105 -16 141
3 17 9 36 16 43 16 9 0 12 130 12 614 0 612 0 615 -21 621 -11 4 -25 18 -31
31 l-11 24 -609 0 c-525 0 -608 -2 -608 -15z" style="color:#000;fill:#f00;fill-opacity:1;"></path>
<path d="M3411 3584 l-40 -45 -3 -274 c-3 -252 -4 -275 -22 -294 -18 -20 -28
-21 -270 -21 -323 0 -323 0 -349 -59 -18 -40 -19 -51 -8 -91 21 -78 8 -75 325
-78 271 -3 285 -4 303 -24 16 -18 19 -47 24 -297 3 -152 6 -277 7 -278 1 -2
18 -21 38 -43 33 -36 41 -40 85 -40 45 0 51 3 86 45 l38 46 5 273 c5 251 7
276 24 295 18 20 28 21 270 22 138 0 269 3 290 7 36 6 42 12 59 55 17 40 18
54 9 85 -24 81 -6 76 -326 82 -256 4 -287 7 -303 23 -16 16 -18 45 -21 289
l-3 272 -41 48 c-37 45 -43 48 -88 48 -45 0 -51 -3 -89 -46z" style="color:#000;fill:#f00;fill-opacity:1;"></path>
<path d="M53 1307 l-53 -22 0 -610 0 -610 30 -17 c17 -9 30 -24 30 -33 0 -13
66 -15 610 -15 597 0 610 0 610 19 0 11 5 23 10 26 24 15 40 65 34 105 -6 34
-14 44 -56 72 l-50 32 -461 1 -460 1 -23 28 -24 27 0 455 c0 429 -1 457 -19
493 -25 49 -39 59 -86 65 -29 4 -55 -1 -92 -17z" style="color:#000;fill:#f00;fill-opacity:1;"></path>
<path d="M6835 1323 c-28 -7 -44 -22 -63 -57 -15 -27 -18 -85 -22 -498 l-5
-467 -23 -23 -23 -23 -457 0 -457 0 -49 -30 c-71 -44 -83 -100 -35 -166 10
-15 19 -34 19 -43 0 -14 58 -16 608 -16 l607 0 10 23 c6 12 20 26 33 32 l22
10 0 610 0 610 -43 17 c-50 21 -94 28 -122 21z" style="color:#000;fill:#f00;fill-opacity:1;"></path>
</g>
</svg>